HIERARCHY
ROOT Hips
{
	OFFSET -0.001795 -0.223333 0.028219
	CHANNELS 6 Xposition Yposition Zposition Zrotation Yrotation Xrotation 
	JOINT LeftUpLeg
	{
		OFFSET 0.069520 -0.091406 -0.006815
		CHANNELS 3 Zrotation Yrotation Xrotation
		JOINT LeftLeg
		{
			OFFSET 0.034277 -0.375199 -0.004496
			CHANNELS 3 Zrotation Yrotation Xrotation
			JOINT LeftFoot
			{
				OFFSET -0.013596 -0.397961 -0.043693
				CHANNELS 3 Zrotation Yrotation Xrotation
				JOINT LeftToe
				{
					OFFSET 0.026358 -0.055791 0.119288
					CHANNELS 3 Zrotation Yrotation Xrotation
					End Site
					{
						OFFSET 0.000000 0.000000 0.000000
					}
				}
			}
		}
	}
	JOINT RightUpLeg
	{
		OFFSET -0.067670 -0.090522 -0.004320
		CHANNELS 3 Zrotation Yrotation Xrotation
		JOINT RightLeg
		{
			OFFSET -0.038290 -0.382569 -0.008850
			CHANNELS 3 Zrotation Yrotation Xrotation
			JOINT RightFoot
			{
				OFFSET 0.015774 -0.398415 -0.042312
				CHANNELS 3 Zrotation Yrotation Xrotation
				JOINT RightToe
				{
					OFFSET -0.025372 -0.048144 0.123348
					CHANNELS 3 Zrotation Yrotation Xrotation
					End Site
					{
						OFFSET 0.000000 0.000000 0.000000
					}
				}
			}
		}
	}
	JOINT Spine
	{
		OFFSET -0.002533 0.108963 -0.026696
		CHANNELS 3 Zrotation Yrotation Xrotation
		JOINT Spine1
		{
			OFFSET 0.005487 0.135180 0.001092
			CHANNELS 3 Zrotation Yrotation Xrotation
			JOINT Spine2
			{
				OFFSET 0.001457 0.052922 0.025425
				CHANNELS 3 Zrotation Yrotation Xrotation
				JOINT Neck
				{
					OFFSET -0.002778 0.213870 -0.042857
					CHANNELS 3 Zrotation Yrotation Xrotation
					JOINT Head
					{
						OFFSET 0.005152 0.064970 0.051349
						CHANNELS 3 Zrotation Yrotation Xrotation
						End Site
						{
							OFFSET 0.000000 0.000000 0.000000
						}
					}
				}
				JOINT LeftShoulder
				{
					OFFSET 0.078845 0.121749 -0.034090
					CHANNELS 3 Zrotation Yrotation Xrotation
					JOINT LeftArm
					{
						OFFSET 0.090977 0.030469 -0.008868
						CHANNELS 3 Zrotation Yrotation Xrotation
						JOINT LeftForeArm
						{
							OFFSET 0.259612 -0.012772 -0.027456
							CHANNELS 3 Zrotation Yrotation Xrotation
							JOINT LeftHand
							{
								OFFSET 0.249234 0.008986 -0.001171
								CHANNELS 3 Zrotation Yrotation Xrotation
								End Site
								{
									OFFSET 0.000000 0.000000 0.000000
								}
							}
						}
					}
				}
				JOINT RightShoulder
				{
					OFFSET -0.081759 0.118833 -0.038615
					CHANNELS 3 Zrotation Yrotation Xrotation
					JOINT RightArm
					{
						OFFSET -0.096012 0.032551 -0.009143
						CHANNELS 3 Zrotation Yrotation Xrotation
						JOINT RightForeArm
						{
							OFFSET -0.253742 -0.013329 -0.021401
							CHANNELS 3 Zrotation Yrotation Xrotation
							JOINT RightHand
							{
								OFFSET -0.255298 0.007772 -0.005559
								CHANNELS 3 Zrotation Yrotation Xrotation
								End Site
								{
									OFFSET 0.000000 0.000000 0.000000
								}
							}
						}
					}
				}
			}
		}
	}
}
MOTION
Frames: 5
Frame Time: 0.050000
0.241141 0.922668 0.903396 3.099613 -3.928093 3.780113 5.139465 -0.633306 -12.721743 -4.790094 0.659023 7.112473 4.037109 10.129558 8.215831 0.000000 0.000000 0.000000 -11.010937 0.580889 -14.984415 6.862797 -0.864457 14.533403 -6.998678 -17.879845 6.190231 0.000000 0.000000 0.000000 10.868619 -4.438305 33.598202 -4.697058 1.675158 -22.581676 -3.954254 9.947412 21.635694 17.986635 -6.301048 -30.611248 0.000000 0.000000 0.000000 -16.340602 -23.826671 9.291554 -43.839168 -20.047670 0.634575 -137.343590 -77.707878 131.715839 0.000000 0.000000 0.000000 23.126684 12.791251 8.646634 42.790953 42.519026 8.956820 5.666800 53.000236 6.448274 0.000000 0.000000 0.000000 
0.240129 0.922262 0.902189 3.152164 -2.976195 3.774194 5.024423 -0.679517 -13.117242 -4.560654 0.602944 7.440032 3.622649 9.455262 8.088005 0.000000 0.000000 0.000000 -11.039358 0.534250 -14.805726 6.982541 -0.932079 14.480329 -7.399638 -18.648114 6.213800 0.000000 0.000000 0.000000 11.034611 -4.621535 33.723417 -4.885158 1.733550 -22.907462 -3.549625 10.704241 21.875025 18.342389 -6.383616 -30.443021 0.000000 0.000000 0.000000 -16.511640 -23.494860 8.834746 -44.338046 -18.934134 0.302311 -136.365585 -75.644653 128.343512 0.000000 0.000000 0.000000 22.213167 12.385439 8.615355 43.218425 42.786357 9.223905 5.289105 52.145425 6.271845 0.000000 0.000000 0.000000 
0.239423 0.922292 0.901029 3.160836 -2.132320 3.750173 4.979476 -0.717447 -13.504459 -4.414161 0.563155 7.818604 3.235756 8.842831 8.087649 0.000000 0.000000 0.000000 -11.173891 0.484293 -14.740598 7.329722 -1.050123 14.602531 -7.730317 -19.287597 6.468356 0.000000 0.000000 0.000000 11.146511 -4.757834 33.702378 -5.237119 1.834129 -22.830966 -3.300807 11.203015 21.883562 18.896803 -6.583152 -30.412819 0.000000 0.000000 0.000000 -16.326274 -22.915690 8.295396 -44.707583 -17.983531 0.001537 -135.020836 -73.847529 124.713229 0.000000 0.000000 0.000000 21.617564 12.381240 8.759328 43.354716 43.061274 9.426399 4.855486 51.351410 6.003425 0.000000 0.000000 0.000000 
0.238731 0.922205 0.899848 3.114677 -1.495573 3.727138 4.861409 -0.756496 -13.831367 -4.039210 0.483962 8.149464 2.956881 8.395796 8.046407 0.000000 0.000000 0.000000 -11.121779 0.458699 -14.602617 7.446023 -1.104285 14.518532 -7.988327 -19.778964 6.598443 0.000000 0.000000 0.000000 11.136592 -4.851494 33.852414 -5.260130 1.847983 -23.063664 -3.060444 11.886924 22.204074 19.344540 -6.798710 -30.101745 0.000000 0.000000 0.000000 -16.283138 -22.752643 7.966490 -44.643265 -17.052718 -0.305101 -134.200208 -72.871378 122.325239 0.000000 0.000000 0.000000 20.732038 12.097965 8.694429 43.665250 43.229407 9.658902 5.002039 50.700607 6.057194 0.000000 0.000000 0.000000 
0.238012 0.922341 0.898815 2.971547 -1.176446 3.819563 4.906763 -0.770415 -14.079863 -3.754111 0.424809 8.217414 2.805118 8.167988 8.100771 0.000000 0.000000 0.000000 -10.973044 0.460695 -14.668857 7.562876 -1.144247 14.451548 -8.117595 -20.027347 6.786948 0.000000 0.000000 0.000000 11.057746 -4.881488 33.917515 -5.454430 1.898238 -23.016791 -2.812422 12.298189 22.151050 19.804488 -7.085423 -29.712238 0.000000 0.000000 0.000000 -15.902822 -22.212519 7.536106 -44.684822 -16.304545 -0.553172 -133.743620 -72.392792 120.951753 0.000000 0.000000 0.000000 20.082052 12.197601 8.764739 43.360934 43.112436 9.576076 5.709873 50.144207 6.301672 0.000000 0.000000 0.000000 
